Simulation
nRows=36
nColumns=15
endheader
time  TH_x TH_y TH_z SC_y  SC_z  SC_x  AC_y  AC_z  AC_x  GH_y  GH_z  GH_yy  EL_x  PS_y
0.75  0.000000  0.000000  0.000000  -33.95425462507293  5.1964166007863  21.250102742907327  59.77668537409291  -3.7445461774070012  -11.059952986024937  21.760706669249995  45.008646123834204  -18.152532858826582  19.98226048511885  0.000000
0.765  0.000000  0.000000  0.000000  -34.11994040555231  5.40274974637653  21.45373681929256  59.89111258400654  -3.36877217193478  -10.900041379594391  21.80612035333686  45.530180385776504  -18.472156124172116  19.77897372600919  0.000000
0.78  0.000000  0.000000  0.000000  -34.282999062942324  5.609382722599038  21.6638681034861  59.99385881583593  -2.994190724725151  -10.7470127676526  21.857315823640945  46.03740910812598  -18.78970054334849  19.574256945581414  0.000000
0.7949999999999999  0.000000  0.000000  0.000000  -34.44423888941419  5.816961352253808  21.88086143323854  60.0851094336065  -2.621998943627699  -10.59952863304524  21.91405584909244  46.53034125347562  -19.105036155723276  19.3686214473584  0.000000
0.8099999999999999  0.000000  0.000000  0.000000  -34.60218504982243  6.025757618338688  22.103398993402877  60.16525904316349  -2.2534946079992406  -10.456179194783594  21.97617863531867  47.00887550628182  -19.418053403312026  19.162592396546103  0.000000
0.825  0.000000  0.000000  0.000000  -34.75792421649265  6.236463827819553  22.33171587719904  60.23474920988022  -1.8900719808998425  -10.315404525490827  22.043460409516968  47.47322956076356  -19.728580904316512  18.95680534840104  0.000000
0.84  0.000000  0.000000  0.000000  -34.91022333267119  6.44945575346064  22.56436758497669  60.29407248305067  -1.5331779787210285  -10.175590732408011  22.11574010243755  47.92343290199644  -20.036305385407726  18.75201493884527  0.000000
0.855  0.000000  0.000000  0.000000  -35.05998242844908  6.665623284680817  22.8014579581198  60.34376179936652  -1.1841855733867939  -10.035351184748716  22.19271548420416  48.35982935980764  -20.340993980878057  18.548876276489118  0.000000
0.87  0.000000  0.000000  0.000000  -35.20536666243977  6.8845436578818635  23.041305043644826  60.38444119888141  -0.8439242875665839  -9.89351368571738  22.27381936205846  48.78267472713313  -20.642369876903285  18.347712074169973  0.000000
0.885  0.000000  0.000000  0.000000  -35.34763029999137  7.106304484175357  23.283804786568673  60.41707731681633  -0.5130953631662195  -9.74882812304553  22.358374308755636  49.192488015833135  -20.940103398305506  18.14909767301462  0.000000
0.8999999999999999  0.000000  0.000000  0.000000  -35.48650589198018  7.330784148015069  23.526973324933792  60.4431094906915  -0.1923521182379139  -9.599758564736169  22.445643873442606  49.589511484579674  -21.233620081579716  17.95391943364977  0.000000
0.9149999999999999  0.000000  0.000000  0.000000  -35.624600029504755  7.557662804532887  23.770770265218  60.46415934443279  0.11792284235168281  -9.444809493056376  22.534540131194525  49.97417974182442  -21.52185249947606  17.762962760236867  0.000000
0.9299999999999999  0.000000  0.000000  0.000000  -35.76193794334743  7.785971311015395  24.013187175714528  60.48191052763972  0.41753006769003537  -9.282848511047778  22.62385353370363  50.34691963797987  -21.803978605479553  17.576909144703528  0.000000
0.945  0.000000  0.000000  0.000000  -35.90095842805769  8.015371246710982  24.254603112233735  60.497986764676035  0.7060106690339288  -9.11320705767449  22.712181579019724  50.70817263032112  -22.078860372080072  17.396430909486586  0.000000
0.96  0.000000  0.000000  0.000000  -36.04094643641558  8.244693613721823  24.493741055071887  60.51379801030038  0.9830568320180441  -8.935792186280711  22.797783348580122  51.058155161373286  -22.34517421690087  17.22207960680805  0.000000
0.975  0.000000  0.000000  0.000000  -36.183461750312034  8.473427498465538  24.731086436879874  60.53054483299203  1.2485533600096768  -8.75070953475882  22.87885780538544  51.397202070993714  -22.601631713308045  17.054370540744912  0.000000
0.99  0.000000  0.000000  0.000000  -36.327471682231476  8.700463308398815  24.96520883909863  60.54912060224001  1.5023929511020901  -8.558201827937259  22.953742998526305  51.72555458075945  -22.847034192379244  16.893842907365826  0.000000
1.005  0.000000  0.000000  0.000000  -36.47436908730464  8.92531703785384  25.196752475728193  60.57018847978994  1.7444097817867692  -8.358917817248916  23.02083132275069  52.04363530086713  -23.08032183688669  16.74102836151869  0.000000
1.02  0.000000  0.000000  0.000000  -36.62273084496392  9.146795033910033  25.42447904437095  60.594160169241086  1.974512080414678  -8.153896563506882  23.07848234253823  52.35170921970651  -23.300431338794443  16.59633511398157  0.000000
1.035  0.000000  0.000000  0.000000  -36.77344511033446  9.364168911886361  25.64939962515028  60.62112139731276  2.1925832456916816  -7.944664972149864  23.124883907716566  52.65009564272118  -23.50614907784575  16.460296802521555  0.000000
1.05  0.000000  0.000000  0.000000  -36.924780051601246  9.576138023506491  25.87057261922036  60.65099141198103  2.398473835802447  -7.732892575055797  23.158365680430194  52.9389536586214  -23.696271598694743  16.333390938699594  0.000000
1.065  0.000000  0.000000  0.000000  -37.07814992341081  9.782373372331039  26.089302443027147  60.683937465315346  2.591600373421209  -7.520157489537947  23.17781787726718  53.21875658470238  -23.869996477026756  16.21550788156465  0.000000
1.08  0.000000  0.000000  0.000000  -37.231542654842826  9.981435609806518  26.30492651142956  60.71942307852072  2.771849123673489  -7.308839526295048  23.18180420444719  53.4895266059359  -24.0260206278031  16.107196327675112  0.000000
1.095  0.000000  0.000000  0.000000  -37.38452795067046  10.17234205260396  26.519009577820487  60.75644341716396  2.939627863449025  -7.102022484255801  23.168397007580236  53.750805791967  -24.162619084500545  16.009850298705032  0.000000
1.1099999999999999  0.000000  0.000000  0.000000  -37.53516613643647  10.353982149326512  26.73082300402532  60.795004237487284  3.0949677918486893  -6.9012424115916655  23.137564827484958  54.002362120611934  -24.280048016158464  15.923321365954463  0.000000
1.125  0.000000  0.000000  0.000000  -37.685476025315474  10.526481420836241  26.941489203995744  60.83601197322057  3.237666538114306  -6.70682799905918  23.09129870811513  54.2444433033869  -24.38007918940928  15.846853508926099  0.000000
1.14  0.000000  0.000000  0.000000  -37.83409540560833  10.688801003783567  27.14955155644907  60.87965142925849  3.3683527065588525  -6.519752763473606  23.03185904922925  54.47691316389951  -24.464041703655933  15.781051931592302  0.000000
1.155  0.000000  0.000000  0.000000  -37.981947987171765  10.840701195662778  27.355512246431903  60.92569403216788  3.48792505189487  -6.341182089693248  22.961445579238273  54.69929933758085  -24.53306809257223  15.726766306932353  0.000000
1.17  0.000000  0.000000  0.000000  -38.126903040779844  10.980793182342794  27.557416615585083  60.973847287524734  3.5975267640640363  -6.172535913950097  22.88242970326465  54.91092868125881  -24.588578138493258  15.684175101316463  0.000000
1.185  0.000000  0.000000  0.000000  -38.26933767917787  11.107961457245597  27.755293848419935  61.02379973659749  3.698591429993581  -6.01549194800623  22.797159952329025  55.11088064129126  -24.632067723936856  15.65341338804105  0.000000
1.2  0.000000  0.000000  0.000000  -38.40750224517971  11.220693233919317  27.946603778802967  61.07503920345076  3.792401748078587  -5.871570916654621  22.70872496834171  55.29779795510273  -24.665398863172314  15.634712485363973  0.000000
1.2149999999999999  0.000000  0.000000  0.000000  -38.54252787267606  11.318000511825261  28.130969830223258  61.127532723817325  3.8803226173825998  -5.742460707569597  22.62034131536336  55.469808113659624  -24.690515056160947  15.628118360294366  0.000000
1.23  0.000000  0.000000  0.000000  -38.67216545104043  11.397719916422625  28.30554205425746  61.18110952990631  3.9637941892489703  -5.630089995358252  22.535441672615796  55.62435463170719  -24.70949302935627  15.633313372341053  0.000000
1.2449999999999999  0.000000  0.000000  0.000000  -38.79662734526778  11.458830573033431  28.469571032585694  61.23545359081305  4.043902951035166  -5.536280991053326  22.457807573648534  55.75811580915993  -24.724725848535765  15.649908474335884  0.000000
1.26  0.000000  0.000000  0.000000  -38.91288093301488  11.499395190377458  28.619684637160763  61.28990633839317  4.121350544302355  -5.463148751253578  22.39176672356658  55.86720715750551  -24.738962769600057  15.677354985155729  0.000000
1.275  0.000000  0.000000  0.000000  -39.01998881957486  11.518068724059287  28.754690234685757  61.343902115356556  4.196636445734095  -5.413289853398975  22.341754300659975  55.9468583809149  -24.755137214172326  15.714846576112341  0.000000
